<?xml version="1.0" encoding="utf-8"?>
<!-- Generator: Adobe Illustrator 23.0.0, SVG Export Plug-In . SVG Version: 6.00 Build 0)  -->
<svg version="1.1" id="图层_1" xmlns="http://www.w3.org/2000/svg" xmlns:xlink="http://www.w3.org/1999/xlink" x="0px" y="0px"
	 viewBox="0 0 130.8 128" style="enable-background:new 0 0 130.8 128;" xml:space="preserve">
<style type="text/css">
	.st0{fill:#1296DB;}
</style>
<path class="st0" d="M64,24c-22.2,0-40,17.8-40,40s17.8,40,40,40s40-17.8,40-40S86.2,24,64,24z M64,99c-19.3,0-35-15.7-35-35
	s15.7-35,35-35s35,15.7,35,35S83.3,99,64,99z"/>
<path class="st0" d="M80.8,63H59.3c-1.5,0-2.2-1.8-1.2-2.8l5.3-5.3c0.7-0.7,0.7-1.7,0-2.3l-1.7-1.7c-0.7-0.7-1.7-0.7-2.3,0
	L46.2,64.2c-0.7,0.7-0.7,1.7,0,2.3L59.7,80c0.7,0.7,1.7,0.7,2.3,0l1.5-1.5c0.7-0.7,0.7-1.7,0-2.3l-5.3-5.3c-1-1-0.3-2.8,1.2-2.8
	h21.5c1,0,1.7-0.7,1.7-1.7v-1.7C82.5,63.8,81.7,63,80.8,63z"/>
</svg>
