<?xml version="1.0" encoding="utf-8"?>
<!-- Generator: Adobe Illustrator 23.0.0, SVG Export Plug-In . SVG Version: 6.00 Build 0)  -->
<svg version="1.1" id="图层_1" xmlns="http://www.w3.org/2000/svg" xmlns:xlink="http://www.w3.org/1999/xlink" x="0px" y="0px"
	 viewBox="0 0 128 128" style="enable-background:new 0 0 128 128;" xml:space="preserve">
<style type="text/css">
	.st0{fill:#EEB860;}
	.st1{fill:#507ACE;}
	.st2{fill:#5B88EE;}
	.st3{fill:#FFFFFF;}
	.st4{fill:#F6C94E;}
</style>
<title>doc</title>
<path class="st0" d="M101.6,33.2h-9.1L91.2,30c-0.8-1.9-3.2-3.3-5.5-3.3H70.3c-2.3,0-4.8,1.4-5.5,3.3l-1.3,3.2H23.9
	c-2.1,0-3.8,1.7-3.8,3.8c0,0,0,0,0,0v42.8c0,2.1,1.7,3.8,3.8,3.8h77.6c2.1,0,3.8-1.7,3.8-3.8V37C105.4,34.9,103.7,33.2,101.6,33.2
	C101.6,33.2,101.6,33.2,101.6,33.2z"/>
<path class="st1" d="M96,72.3H29.9c-2.8,0-5-2.2-5-5V43.5c0-2.8,2.2-5,5-5H96c2.8,0,5,2.2,5,5v23.9C101,70.1,98.8,72.3,96,72.3z"/>
<path class="st2" d="M96,72.3H29.9c-2.8,0-5-2.2-5-5V48.8c0-2.8,2.2-5,5-5H96c2.8,0,5,2.2,5,5v18.5C101,70.1,98.8,72.3,96,72.3z"/>
<path class="st3" d="M49,52.9H32.8c-0.9,0-1.6-0.7-1.6-1.5c0-0.9,0.7-1.6,1.5-1.6c0,0,0,0,0,0H49c0.9,0,1.5,0.7,1.5,1.5c0,0,0,0,0,0
	C50.6,52.2,49.9,52.9,49,52.9C49,52.9,49,52.9,49,52.9z M49,60.6H32.8c-0.9,0-1.5-0.7-1.5-1.6c0-0.9,0.7-1.5,1.5-1.5H49
	c0.9,0,1.6,0.7,1.6,1.5C50.6,59.9,49.9,60.6,49,60.6C49.1,60.6,49.1,60.6,49,60.6L49,60.6z M49,68.3H32.8c-0.9-0.1-1.5-0.8-1.4-1.7
	c0.1-0.8,0.7-1.4,1.4-1.4H49c0.9,0.1,1.5,0.8,1.4,1.7C50.4,67.7,49.8,68.3,49,68.3L49,68.3z"/>
<path class="st4" d="M100.6,101.3H23.9c-2.1,0-4.1-1.4-4.5-3.1l-5.4-26c-0.4-2.1,0.9-4.1,3-4.5c0.2,0,0.5-0.1,0.7-0.1l37.5-0.4
	l11-16.1h43.9c2.1,0,3.8,1.7,3.8,3.9c0,0.3,0,0.5-0.1,0.8l-8.8,42.5C104.7,99.9,102.7,101.3,100.6,101.3z"/>
</svg>
