<?xml version="1.0" encoding="utf-8"?>
<!-- Generator: Adobe Illustrator 23.0.0, SVG Export Plug-In . SVG Version: 6.00 Build 0)  -->
<svg version="1.1" id="图层_1" xmlns="http://www.w3.org/2000/svg" xmlns:xlink="http://www.w3.org/1999/xlink" x="0px" y="0px"
	 viewBox="0 0 200 200" style="enable-background:new 0 0 200 200;" xml:space="preserve">
<style type="text/css">
	.st0{fill:#D5EAFF;}
	.st1{fill:#577EFF;}
	.st2{fill:none;}
	.st3{font-family:'AdobeSongStd-Light-GBpc-EUC-H';}
	.st4{font-size:16px;}
</style>
<path class="st0" d="M129.2,160.8h-17.1v2.6l5.7,7.2l8.2,5.9l4.4,0.7l4.4-0.7l2.5-0.7h1.3l3.8,3.3l1.9,0.7h3.2l8.8-2.6l-7-3.9
	l-4.4-3.9l-5.7-7.2l-3.2-3.3L129.2,160.8L129.2,160.8z M172.7,4.7l-4.4,4.6l-0.6,10.5l-3.2,13.1l-0.6,2.6l6.3-3.9l4.4-7.9l0.6-10.5
	L174,5.3C174,5.3,172.7,4.7,172.7,4.7z M106.8,119.4l10.7,3.3l8.2,6.5l3.2,5.9l0.6,3.9l-1.9,3.3l-2.5,1.3l-4.4-1.3l-5.1-4.6
	l-7.6-6.5l-3.8-4.6l-1.9-3.9V120l1.9-0.7H106.8z M94.1,119.4l-10.7,3.3l-8.2,6.5l-3.2,5.9l-0.6,3.9l1.9,3.3l2.5,1.3l4.4-1.3l5.1-4.6
	l7.6-6.5l3.8-4.6l1.9-3.9V120l-1.9-0.7H94.1z"/>
<path class="st1" d="M109.1,159.6c5.4,0.4,10.5,1.2,15.5,1.1c3.3-0.1,6.6-1.2,9.7-2.5c2.1-0.9,2.9-0.7,4.2,1.2
	c2.3,3.3,4.7,6.6,7.5,9.5c4.4,4.4,9.9,6.6,16.4,6.7c-5.6,2.9-11.4,4.6-17.6,5c-1.2,0.1-2.9-1.1-3.7-2.2c-1.4-1.8-2.8-2-4.8-1.5
	c-2.3,0.6-4.7,1-7.1,1.2c-1.2,0.1-2.6-0.4-3.7-1C118,173.2,113,167,109.1,159.6 M154.4,177.1c-0.7-0.9-0.9-1.2-1.1-1.3
	c-6.9-2.9-11.8-8-15.9-14.2c-0.5-0.7-2.3-1.3-3.1-0.9c-5.4,2.1-10.9,3-16.7,1.9c-1.3-0.2-2.7-0.2-4.3-0.4c4.5,8,11.7,16.8,23,12.9
	c2.4-0.8,4.1-0.2,5.8,1.7c0.9,1,2.7,1.8,4.1,1.7C148.8,178.4,151.3,177.7,154.4,177.1 M174.5,1.4c4.3,12.7,4.2,31.5-14,37.4
	c0-0.3-0.1-0.7,0-0.9c5.6-7.3,7.1-15.8,6.9-24.8c-0.1-2.4,0.4-4,2.3-5.7C171.5,5.9,172.7,3.6,174.5,1.4 M165.4,33.6
	c8.5-2.1,11.6-19.8,7.6-27.3c-1.4,2-3.7,3.8-3.8,5.7C169.2,19.3,168.4,26.3,165.4,33.6 M36.7,68.4c-0.7,1.9-1.5,4.2-2.3,6.4
	c-5.7-1.2-9.9-5.7-11.8-12.9c2.2,1.7,4.1,3.7,6.4,4.7C31.2,67.7,33.9,67.8,36.7,68.4 M139.7,28.8c2.3,4.2,1.1,10.1-2.9,14.7
	c-0.3-1.6-0.8-2.9-0.5-3.9c0.5-1.8,1.6-3.3,2.2-5.1C139,32.9,139.2,31,139.7,28.8 M149.1,64.7c0-0.7,0-1.4,0-2.1
	c-0.3-4.8-4.8-9-9.5-9c-12.7,0-25.3,0-38,0v0c-12.8,0-25.6,0-38.4,0c-5.2,0-9.7,4.6-9.7,9.8c0,1.9,0,3.8,0,5.7
	c0,17.7,0.1,35.4-0.1,53c-0.1,6.4,5.6,11.1,10.7,10.6c2-0.2,4.1,0,6.2,0c0.8,0,1.4,0.1,1.2,1.2c-0.3,1.6-0.5,3.2-0.6,4.9
	c-0.1,1.8,0.9,3.1,2,4.4c0.6,0.7,1,1.5,1.3,2.3c0.2,0.5,0.1,1.1,0.3,1.5c0.3,0.4,0.8,0.8,1.3,0.9c0.3,0,1-0.7,0.9-1
	c-0.4-2.2,0.8-3,2.7-3.3c0.4-0.1,0.8-0.3,1.1-0.5c4.3-2.3,7.8-5.7,11.2-9.1c0.6-0.6,1.5-1.1,2.2-1.1c4.2-0.1,8.4-0.1,12.6,0
	c0.8,0,1.7,0.5,2.3,1c2.2,1.9,4.3,4,6.6,5.9c2.3,1.9,4.8,3.6,7.8,4.5c2.2,0.7,2.2,0.6,2,3c0,0.4,0.3,1.1,0.6,1.3
	c0.4,0.2,1.2,0.2,1.4-0.1c0.3-0.4,0.3-1.1,0.5-1.6c0.2-1.1,0.1-2.5,0.7-3.2c2.6-2.8,2.6-5.9,1.8-9.3c-0.3-1.4,0.1-1.5,1.3-1.5
	c2.4,0,4.7-0.1,7.1,0c5.5,0.3,10.4-5.1,10.3-10.6C149,103.1,149.1,83.9,149.1,64.7L149.1,64.7z M81.9,139.5
	c-1.2,0.9-2.7,1.6-4.2,2.1c-2.4,0.8-4.3-0.6-4.5-3.1c0-0.4,0-0.7,0-1.1c0-3.2,1.7-5.6,3.8-7.7c2.6-2.7,5.8-4.4,9.2-5.8
	c3.1-1.2,6.2-2.1,9.4-3.1c0.5-0.2,1-0.1,1.6-0.1c1,0.1,1.3,0.7,0.9,1.6c-0.5,1.1-1,2.2-1.7,3.1C92.2,130.8,87.3,135.4,81.9,139.5
	L81.9,139.5z M96.1,129.5l4.4-6.5l4.5,6.5C105,129.5,96.1,129.5,96.1,129.5z M128.3,140c-0.8,1.8-2.4,2.4-4.3,1.8
	c-3.1-1-5.6-2.9-8-5.1c-3-2.7-5.9-5.4-8.7-8.3c-1.5-1.6-2.8-3.5-4-5.4c-1-1.6-0.3-2.5,1.6-2.5c2.2,0.6,4.3,1.1,6.5,1.8
	c3.6,1.2,7.1,2.5,10.3,4.7c2.9,2,5.5,4.5,6.6,8C128.7,136.7,129,138.4,128.3,140L128.3,140z M146.2,94.8c0,9.1,0,18.3,0,27.4
	c0,3.3-1.4,5.7-4.6,6.9c-1.2,0.4-2.7,0.5-4,0.5c-2.9,0-5.8,0-8.6-0.2c-0.7,0-1.5-0.4-2-0.8c-5.8-5.7-13.1-8.3-20.8-9.8
	c-1.7-0.3-3.5-0.4-5,1c-0.2,0.2-1,0.1-1.2-0.1c-1.4-1.3-3.1-1.3-4.7-0.9c-7.3,1.7-14.3,4-19.6,9.6c-1.6,1.7-3.4,1.1-5.1,1.3
	c-2.3,0.2-4.7-0.1-7.1-0.1c-4.1-0.1-6.9-2.9-6.9-7c0-9.8,0-19.6,0-29.4h0c0-9.8,0.1-19.6,0-29.4c-0.1-3.8,3.3-7.2,6.6-7.1
	c3.4,0.1,6.7,0,10.1,0c8.7,0,17.4-0.1,26-0.1c10.9,0,21.9,0.1,32.8,0.1c2.4,0,4.7,0,7.1,0c4.1,0.1,7,2.9,7,7.1
	C146.2,74.2,146.2,84.5,146.2,94.8L146.2,94.8z M132.3,81.2c-2.8-2.4-6-4-9.4-5c-2-0.6-4-0.8-6.1-1c-0.5,0-1,0.5-1.5,0.8
	c0.4,0.4,0.8,0.9,1.3,1.1c0.7,0.3,1.4,0.4,2.1,0.5V78c-0.5,0.4-1,0.7-1.6,1.1c-3.7,2.5-5.3,7.6-3.5,11.6c2.3,5.4,7.1,7.3,12.4,5.5
	c4.5-1.6,6.7-4.9,6.3-10.3c-0.1-0.7-0.1-1.2,0.8-1.4c1.3-0.3,1.5-0.9,0.6-2C133.2,82,132.7,81.6,132.3,81.2L132.3,81.2z M115.5,84.7
	c0-0.9,1.1-1.9,2-1.9c1.1,0,2,0.9,2,2c0,1.2-0.8,2-2,2C116.4,86.7,115.4,85.7,115.5,84.7L115.5,84.7z M118.8,93.8
	c-1.3,0-2.5-1.4-2.5-2.9c0-1.4,1.3-2.7,2.7-2.7c1.3,0,2.5,1.4,2.5,2.7C121.5,92.6,120.3,93.8,118.8,93.8z M125.8,91.6
	c-2.2-0.1-4.1-2.2-4-4.6c0.1-2.4,2.3-4.5,4.7-4.4c2.2,0.1,4.2,2.4,4.2,4.7C130.6,89.9,128.5,91.7,125.8,91.6L125.8,91.6z M82.9,78.5
	c-0.4-0.3-0.9-0.6-1.1-0.8c0.8-0.8,1.9-1.6,1.8-2c-0.3-1.2-1.5-0.6-2.4-0.6c-0.1,0-0.1,0-0.2,0c-4.2,0.3-7.7,2.4-11.1,4.7
	c-1.2,0.9-2.3,2-3.3,3.2c-0.9,1.1-0.7,1.8,0.7,1.9c1.1,0.1,1.1,0.7,1.1,1.5c0,3.7,1.6,6.5,4.8,8.3c3,1.7,6,1.8,9.1,0.1
	C88.7,91.2,89,82.8,82.9,78.5L82.9,78.5z M70.8,84.3c-0.1-0.9,1-2.1,2-2.1c0.9,0,1.8,0.9,1.9,2c0,1.2-0.6,1.9-1.8,1.9
	C71.6,86,71,85.4,70.8,84.3z M74.1,93c-1.3,0-2.7-1.4-2.7-2.8c0-1.5,1.2-2.6,2.8-2.5c1.5,0,2.4,1,2.4,2.7C76.6,91.9,75.6,93,74.1,93
	z M81.2,91c-2.3,0-4.3-1.9-4.3-4.3c0-2.4,1.9-4.6,4.2-4.6c2.6,0.1,4.3,1.8,4.5,4.6C85.8,88.7,83.5,91.1,81.2,91z M100.5,105.9
	c-4,0.1-6.8,1.8-9,4.4c-0.5,0.6-0.4,1.6-0.6,2.4c0.7-0.1,1.4-0.2,2.1-0.4c2.1-0.6,4.1-1.6,6.2-2c2.8-0.4,5.4,0.6,7.9,2
	c0.4,0.3,1,0.2,1.5,0.3c-0.1-0.6,0-1.2-0.3-1.6C106.5,108,103.9,106,100.5,105.9L100.5,105.9z M124.7,99.7c-0.3,0.2-0.8,0.2-1.1,0
	c-2.2-1-3.1-0.8-4.8,1.1h7.8l0.1-0.5C126.2,99.7,125.8,99,124.7,99.7z M75.9,98.9c-0.4,0.1-0.7,0.6-1.1,0.8c0.4,0.2,0.8,0.5,1.2,0.5
	c1.3-0.1,2.6-0.3,3.8-0.4l0,0.1c0.2,0,0.4,0,0.5,0c0.4,0,0.8-0.1,1.2-0.2c-0.4-0.3-0.7-0.5-1.1-0.8C79,97.8,77.4,98.4,75.9,98.9z"/>
<rect x="43" y="161.3" class="st2" width="65.7" height="16.3"/>
<text transform="matrix(1 0 0 1 43.0434 175.4198)" class="st1 st3 st4">加载失败</text>
</svg>
