<?xml version="1.0" encoding="utf-8"?>
<!-- Generator: Adobe Illustrator 23.0.0, SVG Export Plug-In . SVG Version: 6.00 Build 0)  -->
<svg version="1.1" id="图层_1" xmlns="http://www.w3.org/2000/svg" xmlns:xlink="http://www.w3.org/1999/xlink" x="0px" y="0px"
	 viewBox="0 0 48 48" style="enable-background:new 0 0 48 48;" xml:space="preserve">
<style type="text/css">
	.st0{fill:#E1E1E1;}
</style>
<path class="st0" d="M22.8,19.1h2.5v17.5h-2.5V19.1z M22.8,11.4h2.5v3.1h-2.5V11.4z"/>
<path class="st0" d="M24,5c2.6,0,5,0.5,7.4,1.5c2.3,1,4.3,2.3,6,4.1c1.7,1.7,3.1,3.8,4.1,6c1,2.3,1.5,4.8,1.5,7.4s-0.5,5-1.5,7.4
	c-1,2.3-2.3,4.3-4.1,6c-1.7,1.7-3.8,3.1-6,4.1C29,42.5,26.6,43,24,43s-5-0.5-7.4-1.5c-2.3-1-4.3-2.3-6-4.1c-1.7-1.7-3.1-3.8-4.1-6
	C5.5,29,5,26.6,5,24s0.5-5,1.5-7.4c1-2.3,2.3-4.3,4.1-6c1.7-1.7,3.8-3.1,6-4.1C19,5.5,21.4,5,24,5 M24,3.1C12.5,3.1,3.1,12.5,3.1,24
	S12.5,44.9,24,44.9S44.9,35.5,44.9,24S35.5,3.1,24,3.1z"/>
</svg>
