<?xml version="1.0" encoding="utf-8"?>
<!-- Generator: Adobe Illustrator 23.0.0, SVG Export Plug-In . SVG Version: 6.00 Build 0)  -->
<svg version="1.1" id="图层_1" xmlns="http://www.w3.org/2000/svg" xmlns:xlink="http://www.w3.org/1999/xlink" x="0px" y="0px"
	 viewBox="0 0 200 200" style="enable-background:new 0 0 200 200;" xml:space="preserve">
<style type="text/css">
	.st0{fill:#00A0E9;}
	.st1{fill:#FFFFFF;}
	.st2{font-family:'AdobeSongStd-Light-GBpc-EUC-H';}
	.st3{font-size:15.5652px;}
</style>
<path class="st0" d="M120.8,20.9H67.2c0,0-16.6,1.4-19.3,20.9v42.1H31.4c0,0-6.3-0.3-6.6,6.5v35.7c0,0,0.3,5.4,6.7,5.4h16.4
	l0.1,19.5c0,0,1.1,18.9,22.2,20.4h73.5c0,0,19.1-0.1,21.1-22.6V61.8C164.9,61.8,131.9,23.6,120.8,20.9z M152.9,148.3
	c-1.6,9.9-9.3,10.9-9.3,10.9H70.8c-9.9-1.4-10.5-9.3-10.5-9.3v-18.4H118c7.1-0.2,6.1-6.1,6.1-6.1V90.1c-0.1-6.1-6.1-6.1-6.1-6.1
	H60.3V42.2c1.5-7.1,9.7-9.5,9.7-9.5h43.2c3.8,1.1,4.2,4.6,4.2,4.6v24.9c0.4,5.2,5.8,5.6,5.8,5.6l21.6-0.3c7.7-0.4,8.1,5.6,8.1,5.6
	V148.3L152.9,148.3z"/>
<text transform="matrix(1 0 0 1 27.0082 114.5596)" class="st1 st2 st3">缩略图生成中</text>
</svg>
