<svg id="图层_1" data-name="图层 1" xmlns="http://www.w3.org/2000/svg" viewBox="0 0 23.48 15.99"><defs><style>.cls-1{fill:#ff9515;}.cls-2{fill:#fff;}.cls-3{fill:none;stroke:#fff;stroke-miterlimit:10;stroke-width:0.1px;}</style></defs><title>logo</title><path class="cls-1" d="M19.53,0c-1.22,0-1.9.82-2.75,2.34-1.71,3.05-3.12,4.22-6.48,6.21-5,3-9,5.36-9,5.36L0,15.94H.19a37.75,37.75,0,0,1,7.28-3.12c-.6.69-1.07,1.26-1,1.37a.06.06,0,0,0,.06,0l.61,0a15.61,15.61,0,0,0,4.39-.75,8.48,8.48,0,0,0,1.74-.71l.23,0,1.18.83.28.59v.59l-.93.79L13.9,16h4.93l-.19-.51-2.35-.72L16,14.08l.24-2a6,6,0,0,0,3.49-3.93c.86-3.19,1.26-3.68,2.39-4.75l1.32-1.11L22.16,1.14A3.35,3.35,0,0,0,19.53,0Z" transform="translate(0 0)"/><circle class="cls-2" cx="21.02" cy="1.9" r="0.5"/><circle class="cls-3" cx="21.02" cy="1.9" r="0.5"/></svg>