<?xml version="1.0" encoding="utf-8"?>
<!-- Generator: Adobe Illustrator 23.0.0, SVG Export Plug-In . SVG Version: 6.00 Build 0)  -->
<svg version="1.1" id="图层_1" xmlns="http://www.w3.org/2000/svg" xmlns:xlink="http://www.w3.org/1999/xlink" x="0px" y="0px"
	 viewBox="0 0 200 200" style="enable-background:new 0 0 200 200;" xml:space="preserve">
<style type="text/css">
	.st0{fill:#68ABE8;}
	.st1{fill:#FFFFFF;}
	.st2{fill:#97D8FF;}
</style>
<path class="st0" d="M163.7,60.5h-25c-3.2,0-6.5-1.4-8.8-3.7c-2.3-2.3-3.7-5.8-3.7-9V21.6L163.7,60.5z"/>
<path class="st1" d="M87.8,79.7l14.6,21.5l14.6-21.5H128l-20.1,28.7l21.3,30.8h-11.1l-16-23.6l-15.7,23.6H75.3l21.5-30.8L76.9,79.7
	C76.9,79.7,87.8,79.7,87.8,79.7z"/>
<path class="st2" d="M138.7,60.5c-3.2,0-6.5-1.4-8.8-3.7c-2.3-2.3-3.7-5.8-3.7-9V21.6H51.4c-3.5,0-6.7,1.2-9,3.7
	c-2.3,2.5-3.7,5.8-3.7,9.3v129.6c0,7.2,5.6,12.7,12.5,12.7h100c3.2,0,6.5-1.4,8.8-3.7s3.7-5.6,3.7-9V60.5H138.7z M118.1,139.2
	l-16-23.6l-15.7,23.6H75.3l21.5-30.8L76.9,79.7H88l14.6,21.5l14.6-21.5h11.1l-20.1,28.7l21.1,30.8H118.1L118.1,139.2z"/>
</svg>
