<?xml version="1.0" encoding="utf-8"?>
<!-- Generator: Adobe Illustrator 23.0.0, SVG Export Plug-In . SVG Version: 6.00 Build 0)  -->
<svg version="1.1" id="图层_1" xmlns="http://www.w3.org/2000/svg" xmlns:xlink="http://www.w3.org/1999/xlink" x="0px" y="0px"
	 viewBox="0 0 200 200" style="enable-background:new 0 0 200 200;" xml:space="preserve">
<style type="text/css">
	.st0{fill:#6EA858;}
	.st1{fill:#FFFFFF;}
	.st2{fill:#9FD48C;}
</style>
<path class="st0" d="M163.7,60.5h-24.8c-6.9,0-12.7-5.8-12.7-13V21.6L163.7,60.5z"/>
<path class="st1" d="M61.4,85c0-5.1,3.7-9.3,8.6-9.3c4.6,0,8.6,4.2,8.6,9.3s-3.7,9.3-8.6,9.3C65.1,94.3,61.4,90.1,61.4,85z
	 M124.1,87.1l21.3,43.3H56.7c10.6-10,33.3-31.5,33.3-31.5l9,16.9C99.1,115.8,124.1,87.1,124.1,87.1z"/>
<path class="st2" d="M138.9,60.5c-6.9,0-12.7-5.8-12.7-13V21.6h-75c-3.2,0-6.5,1.4-8.8,3.7c-2.3,2.5-3.7,5.8-3.7,9.3v129.6
	c0,3.5,1.4,6.7,3.7,9c2.3,2.3,5.6,3.7,8.8,3.7h100c3.2,0,6.5-1.4,8.8-3.7s3.7-5.6,3.7-9V60.5H138.9z M69.9,76c4.6,0,8.6,4.2,8.6,9.3
	s-3.7,9.3-8.6,9.3c-4.9,0-8.6-4.2-8.6-9.3S65.3,76,69.9,76z M56.7,130.6c10.6-10,33.3-31.5,33.3-31.5l9,16.9l25-28.7l21.3,43.3
	C145.4,130.6,56.7,130.6,56.7,130.6z"/>
</svg>
