<?xml version="1.0" encoding="utf-8"?>
<!-- Generator: Adobe Illustrator 23.0.0, SVG Export Plug-In . SVG Version: 6.00 Build 0)  -->
<svg version="1.1" id="图层_1" xmlns="http://www.w3.org/2000/svg" xmlns:xlink="http://www.w3.org/1999/xlink" x="0px" y="0px"
	 viewBox="0 0 200 200" style="enable-background:new 0 0 200 200;" xml:space="preserve">
<style type="text/css">
	.st0{fill:#68ABE8;}
	.st1{fill:#FFFFFF;}
	.st2{fill:#97D8FF;}
</style>
<path class="st0" d="M163.7,60.5h-25c-3.2,0-6.5-1.4-8.8-3.7c-2.3-2.3-3.7-5.8-3.7-9V21.6L163.7,60.5z"/>
<path class="st1" d="M105.3,79.7c14.1,0,21.3,6,21.3,18.1c0,12.3-7.2,18.3-21.5,18.3H89.6v23.1h-9V79.7H105.3L105.3,79.7z
	 M89.6,108.2h14.8c4.4,0,7.6-0.9,9.7-2.5c2.1-1.6,3-4.4,3-8.1s-1.2-6.3-3.2-7.9c-2.1-1.6-5.3-2.5-9.7-2.5H89.4v21.1H89.6z"/>
<path class="st2" d="M114.4,89.9c-2.1-1.6-5.3-2.5-9.7-2.5H89.8v20.8h14.8c4.4,0,7.6-0.9,9.7-2.5c2.1-1.6,3-4.4,3-8.1
	S116.5,91.5,114.4,89.9z"/>
<path class="st2" d="M138.7,60.5c-3.2,0-6.5-1.4-8.8-3.7c-2.3-2.3-3.7-5.8-3.7-9V21.6H51.4c-3.5,0-6.7,1.2-9,3.7
	c-2.3,2.5-3.7,5.8-3.7,9.3v129.6c0,7.2,5.6,12.7,12.5,12.7h100c3.2,0,6.5-1.4,8.8-3.7s3.7-5.6,3.7-9V60.5H138.7z M105.1,116H89.6
	v23.1h-9V79.7h24.8c14.1,0,21.3,6,21.3,18.1C126.6,110,119.5,116,105.1,116L105.1,116z"/>
</svg>
