<?xml version="1.0" encoding="utf-8"?>
<!-- Generator: Adobe Illustrator 23.0.0, SVG Export Plug-In . SVG Version: 6.00 Build 0)  -->
<svg version="1.1" id="图层_1" xmlns="http://www.w3.org/2000/svg" xmlns:xlink="http://www.w3.org/1999/xlink" x="0px" y="0px"
	 viewBox="0 0 200 200" style="enable-background:new 0 0 200 200;" xml:space="preserve">
<style type="text/css">
	.st0{fill:#7671B9;}
	.st1{fill:#FFFFFF;}
	.st2{fill:#9894F1;}
</style>
<path class="st0" d="M162.4,60h-24.7C130.8,60,125,54.2,125,47V21.2L162.4,60z"/>
<path class="st1" d="M130.8,87.7l-13.2,8.1v-7.9c0-2.5-1.8-4.4-4.4-4.4H74.4c-2.3,0-4.4,1.8-4.4,4.4v30.7c0,2.3,1.8,4.4,4.4,4.4h39
	c2.3,0,4.4-1.8,4.4-4.4v-8.1l13.2,8.1c0.5,0.2,0.9,0.2,1.4,0c0.5-0.2,0.7-0.7,0.7-1.2V88.9c0-0.5-0.2-0.9-0.7-1.2
	C131.7,87.5,131.2,87.5,130.8,87.7L130.8,87.7z"/>
<path class="st2" d="M162.4,60h-24.7C130.8,60,125,54.2,125,47V21.2H50.4c-3.5,0-6.7,1.4-9,3.7c-2.3,2.5-3.7,5.8-3.7,9.2v129.4
	c0,7.2,5.5,12.7,12.5,12.7h99.8c3.2,0,6.5-1.4,9-3.7c2.3-2.3,3.7-5.5,3.7-9L162.4,60z M132.8,117.5c0,0.5-0.2,0.9-0.7,1.2
	s-0.9,0.2-1.4,0l-13.2-8.1v8.1c0,2.3-1.8,4.4-4.4,4.4H74.4c-2.3,0-4.4-1.8-4.4-4.4V87.9c0-2.5,1.8-4.4,4.4-4.4h39
	c2.3,0,4.4,1.8,4.4,4.4v7.9l13.2-8.1c0.5-0.2,0.9-0.2,1.4,0c0.5,0.2,0.7,0.7,0.7,1.2v28.7L132.8,117.5z"/>
</svg>
