<?xml version="1.0" encoding="utf-8"?>
<!-- Generator: Adobe Illustrator 23.0.0, SVG Export Plug-In . SVG Version: 6.00 Build 0)  -->
<svg version="1.1" id="图层_1" xmlns="http://www.w3.org/2000/svg" xmlns:xlink="http://www.w3.org/1999/xlink" x="0px" y="0px"
	 viewBox="0 0 200 200" style="enable-background:new 0 0 200 200;" xml:space="preserve">
<style type="text/css">
	.st0{fill:#E86953;}
	.st1{fill:#FFFFFF;}
	.st2{fill:#FF8D72;}
</style>
<path class="st0" d="M163.7,61.1h-25c-3.2,0-6.5-1.4-8.8-3.7c-2.3-2.3-3.7-5.8-3.7-9V22.2L163.7,61.1L163.7,61.1z"/>
<path class="st1" d="M128.3,126.8V77.3c0-2.5-0.9-4.6-2.8-6.3c-1.9-1.4-4.2-2.1-6.5-1.6l-31.3,6c-4.4,0.9-7.9,5.1-7.9,9.5v35.4
	c-0.7-0.2-1.6-0.2-2.3-0.2c-5.8,0-10.4,4.2-10.4,9.3c0,5.1,4.6,9.3,10.4,9.3c5.8,0,10.4-4.2,10.4-9.3v-22l32.2-7.2V118
	c-0.7-0.2-1.6-0.2-2.3-0.2c-5.8,0-10.4,4.2-10.4,9.3c0,5.1,4.6,9.3,10.4,9.3S128.3,131.9,128.3,126.8L128.3,126.8z M88,98.8V84.7
	c0-0.7,0.7-1.4,1.2-1.4l31-5.8v14.1L88,98.8z"/>
<path class="st2" d="M88,84.7v14.1l32.2-7.2V77.5l-31,5.8C88.4,83.3,88,84.2,88,84.7z"/>
<path class="st2" d="M138.7,61.1c-3.2,0-6.5-1.4-8.8-3.7c-2.3-2.3-3.7-5.8-3.7-9V22.2H51.4c-3.5,0-6.7,1.4-9,3.7
	c-2.3,2.5-3.7,5.8-3.7,9.3v129.6c0,7.2,5.6,12.7,12.5,12.7h100c3.2,0,6.5-1.4,8.8-3.7s3.7-5.6,3.7-9V61.1H138.7z M117.8,136.1
	c-5.8,0-10.4-4.2-10.4-9.3c0-5.1,4.6-9.3,10.4-9.3c0.7,0,1.6,0,2.3,0.2V100L88,107.1v22c0,5.1-4.6,9.3-10.4,9.3
	c-5.8,0-10.4-4.2-10.4-9.3c0-5.1,4.6-9.3,10.4-9.3c0.7,0,1.6,0,2.3,0.2V84.7c0-4.4,3.5-8.6,7.9-9.5l31-5.8c2.3-0.5,4.9,0.2,6.5,1.6
	c1.9,1.4,2.8,3.7,2.8,6.3v49.5C128.3,131.9,123.4,136.1,117.8,136.1L117.8,136.1z"/>
</svg>
