<?xml version="1.0" encoding="utf-8"?>
<!-- Generator: Adobe Illustrator 23.0.0, SVG Export Plug-In . SVG Version: 6.00 Build 0)  -->
<svg version="1.1" id="图层_1" xmlns="http://www.w3.org/2000/svg" xmlns:xlink="http://www.w3.org/1999/xlink" x="0px" y="0px"
	 viewBox="0 0 200 200" style="enable-background:new 0 0 200 200;" xml:space="preserve">
<style type="text/css">
	.st0{fill:#9AA9B6;}
	.st1{fill:#FFFFFF;}
	.st2{fill:#C2CDD3;}
</style>
<path class="st0" d="M163.6,60.5h-25c-3.2,0-6.5-1.4-8.8-3.7c-2.3-2.3-3.7-5.8-3.7-9V21.6L163.6,60.5z"/>
<path class="st1" d="M99.8,125.3l25.9,4.6v-25.5H99.8V125.3z M99.8,79v20.8h25.9V74.4C125.7,74.4,99.8,79,99.8,79z M72.4,99.9h21.8
	V79.7l-21.8,3.9V99.9z M72.4,120.9l21.8,3.7v-20.1H72.4V120.9z"/>
<path class="st2" d="M138.6,60.5c-3.2,0-6.5-1.4-8.8-3.7c-2.3-2.3-3.7-5.8-3.7-9V21.6H51.4c-3.5,0-6.7,1.4-9,3.7
	c-2.3,2.5-3.7,5.8-3.7,9.3v129.6c0,7.2,5.6,12.7,12.5,12.7h100c3.2,0,6.5-1.4,8.8-3.7c2.3-2.3,3.7-5.6,3.7-9V60.5H138.6z
	 M94.2,124.6l-21.8-3.7v-16.4h21.8V124.6z M94.2,99.9H72.4V83.7l21.8-3.9V99.9z M125.7,130l-25.9-4.6v-20.8h25.9V130z M125.7,99.9
	H99.8V79l25.9-4.6V99.9z"/>
</svg>
