<?xml version="1.0" encoding="utf-8"?>
<!-- Generator: Adobe Illustrator 23.0.0, SVG Export Plug-In . SVG Version: 6.00 Build 0)  -->
<svg version="1.1" id="图层_1" xmlns="http://www.w3.org/2000/svg" xmlns:xlink="http://www.w3.org/1999/xlink" x="0px" y="0px"
	 viewBox="0 0 200 200" style="enable-background:new 0 0 200 200;" xml:space="preserve">
<style type="text/css">
	.st0{fill:#8190DC;}
	.st1{fill:#FFFFFF;}
	.st2{fill:#97BAFF;}
</style>
<path class="st0" d="M162.7,61.2H138c-6.9,0-12.7-5.8-12.7-12.9V22.4L162.7,61.2z"/>
<path class="st1" d="M130.1,97H72.4c-2.3,0-4.2-1.8-4.2-4.2c0-2.3,1.8-4.2,4.2-4.2h57.8c2.3,0,4.2,1.8,4.2,4.2
	C134.3,95.2,132.4,97,130.1,97z M130.1,133.5H72.4c-2.3,0-4.2-1.8-4.2-4.2c0-2.3,1.8-3.9,4.2-3.9h57.8c2.3,0,4.2,1.8,4.2,4.2
	C134.3,131.9,132.4,133.5,130.1,133.5L130.1,133.5z"/>
<path class="st2" d="M162.7,61.2H138c-6.9,0-12.7-5.8-12.7-12.9V22.4H50.6c-3.5,0-6.7,1.4-9,3.7c-2.3,2.5-3.7,5.8-3.7,9.2v129.9
	c0,3.5,1.4,6.7,3.7,9c2.3,2.3,5.5,3.7,8.8,3.7h99.8c3.2,0,6.5-1.4,9-3.7c2.3-2.3,3.7-5.8,3.7-9L162.7,61.2L162.7,61.2z M130.1,133.5
	H72.4c-2.3,0-4.2-1.8-4.2-4.2c0-2.3,1.8-3.9,4.2-3.9h57.8c2.3,0,4.2,1.8,4.2,4.2C134.3,131.9,132.4,133.5,130.1,133.5L130.1,133.5z
	 M130.1,97H72.4c-2.3,0-4.2-1.8-4.2-4.2s1.8-4.2,4.2-4.2h57.8c2.3,0,4.2,1.8,4.2,4.2S132.4,97,130.1,97z"/>
</svg>
