<?xml version="1.0" encoding="utf-8"?>
<!-- Generator: Adobe Illustrator 23.0.0, SVG Export Plug-In . SVG Version: 6.00 Build 0)  -->
<svg version="1.1" id="图层_1" xmlns="http://www.w3.org/2000/svg" xmlns:xlink="http://www.w3.org/1999/xlink" x="0px" y="0px"
	 viewBox="0 0 200 200" style="enable-background:new 0 0 200 200;" xml:space="preserve">
<style type="text/css">
	.st0{fill:#E45353;}
	.st1{fill:#FF7272;}
	.st2{fill:#FFFFFF;}
</style>
<path class="st0" d="M163.7,60.5h-25c-3.2,0-6.5-1.4-8.8-3.7c-2.3-2.3-3.7-5.8-3.7-9V21.6L163.7,60.5z"/>
<path class="st1" d="M163.7,60.5"/>
<path class="st2" d="M131.3,126.7c-5.8-0.5-11.3-2.5-15.7-6.5c-8.8,1.9-16.9,4.6-25.2,8.1c-6.5,11.6-12.7,17.6-18.1,17.6
	c-1.2,0-2.3-0.2-3.2-0.9c-2.3-0.9-3.7-3.2-3.7-5.8c0-1.9,0.5-7.2,20.6-16c4.6-8.3,8.3-17.1,11.3-26.4c-2.5-5.1-8.1-17.6-4.2-24.1
	c1.2-2.3,3.7-3.7,6.5-3.5c2.1,0,4.2,0.9,5.6,2.8c2.8,3.9,2.5,11.8-1.2,23.8c3.5,6.5,7.9,12,13.2,16.9c4.4-0.9,8.8-1.4,13.4-1.4
	c10,0.2,11.3,4.9,11.3,7.6C141.9,126.7,134.7,126.7,131.3,126.7L131.3,126.7z M71.8,139.9l0.7-0.2c3-1.2,5.3-3.2,6.9-6
	C76.4,135,73.9,137.1,71.8,139.9z M100,76.2h-0.7c-0.2,0-0.7,0-0.9,0.2c-0.9,3.7-0.2,7.4,1.4,10.9C101.2,83.6,101.2,79.7,100,76.2z
	 M101.6,107l-0.2,0.5l-0.2-0.2c-1.9,4.9-3.9,9.7-6.3,14.4l0.5-0.2v0.5c4.6-1.6,9.5-3,14.4-4.2l-0.2-0.2h0.7
	C107,114.2,104,110.7,101.6,107L101.6,107z M130.3,118.4c-1.9,0-3.7,0-5.6,0.5c2.1,1.2,4.2,1.4,6.3,1.6c1.4,0.2,3,0,4.2-0.5
	C135.4,119.3,134.5,118.4,130.3,118.4z"/>
<path class="st1" d="M71.8,139.9l0.7-0.2c3-1.2,5.3-3.2,6.9-6C76.4,135,73.9,137.1,71.8,139.9z M101.6,107l-0.2,0.5l-0.2-0.2
	c-1.9,4.9-3.9,9.7-6.3,14.4l0.5-0.2v0.5c4.6-1.6,9.5-3,14.4-4.2l-0.2-0.2h0.7C107,114.2,104,110.7,101.6,107L101.6,107z M100,76.2
	h-0.7c-0.2,0-0.7,0-0.9,0.2c-0.9,3.7-0.2,7.4,1.4,10.9C101.2,83.6,101.2,79.7,100,76.2z M130.3,118.4c-1.9,0-3.7,0-5.6,0.5
	c2.1,1.2,4.2,1.4,6.3,1.6c1.4,0.2,3,0,4.2-0.5C135.4,119.3,134.5,118.4,130.3,118.4z"/>
<path class="st1" d="M138.7,60.5c-3.2,0-6.5-1.4-8.8-3.7c-2.3-2.3-3.7-5.8-3.7-9V21.6H51.4c-3.5,0-6.7,1.2-9,3.7
	c-2.3,2.5-3.7,5.8-3.7,9.3v129.6c0,7.2,5.6,12.7,12.5,12.7h100c3.2,0,6.5-1.4,8.8-3.7s3.7-5.6,3.7-9V60.5H138.7z M141.9,119.5
	c0,7.2-6.9,7.2-10.6,7.2c-5.8-0.5-11.3-2.5-15.7-6.5c-8.8,1.9-16.9,4.6-25.2,8.1c-6.5,11.6-12.7,17.6-18.1,17.6
	c-1.2,0-2.3-0.2-3.2-0.9c-2.3-0.9-3.7-3.2-3.7-5.8c0-1.9,0.5-7.2,20.6-16c4.6-8.3,8.3-17.1,11.3-26.4c-2.5-5.1-8.1-17.6-4.2-24.1
	c1.2-2.3,3.7-3.7,6.5-3.5c2.1,0,4.2,0.9,5.6,2.8c2.8,3.9,2.5,11.8-1.2,23.8c3.5,6.5,7.9,12,13.2,16.9c4.4-0.9,8.8-1.4,13.4-1.4
	C140.5,112.1,142.1,116.7,141.9,119.5L141.9,119.5z"/>
</svg>
