<?xml version="1.0" encoding="utf-8"?>
<!-- Generator: Adobe Illustrator 23.0.0, SVG Export Plug-In . SVG Version: 6.00 Build 0)  -->
<svg version="1.1" id="图层_1" xmlns="http://www.w3.org/2000/svg" xmlns:xlink="http://www.w3.org/1999/xlink" x="0px" y="0px"
	 viewBox="0 0 200 200" style="enable-background:new 0 0 200 200;" xml:space="preserve">
<style type="text/css">
	.st0{fill:#68ABE8;}
	.st1{fill:#FFFFFF;}
	.st2{fill:#97D8FF;}
	.st3{fill:none;}
	.st4{font-family:'ArialMT';}
	.st5{font-size:36px;}
	.st6{letter-spacing:6;}
</style>
<path class="st0" d="M163.6,60.5h-25c-3.2,0-6.5-1.4-8.8-3.7s-3.7-5.8-3.7-9V21.6L163.6,60.5z"/>
<path class="st1" d="M81.9,103.1c2.3,1.9,3.7,4.4,4.2,7.6h-4.6c-0.5-2.1-1.6-3.7-3-4.6c-1.4-1.2-3.2-1.6-5.6-1.6
	c-3.5,0-6,1.2-7.6,3.5c-1.6,2.1-2.3,5.1-2.3,8.6c0,3.7,0.7,6.7,2.3,8.8c1.6,2.3,4.2,3.2,7.9,3.2c2.3,0,4.2-0.5,5.8-1.6
	c1.6-1.2,2.8-3,3.2-5.6h4.6c-0.7,3.7-2.3,6.5-4.9,8.6c-2.3,1.9-5.3,3-8.8,3c-5.1,0-9-1.6-11.6-4.9c-2.3-2.8-3.5-6.5-3.5-11.3
	c0-4.6,1.2-8.3,3.5-11.3c2.5-3.2,6.5-4.9,11.3-4.9C76.6,100.3,79.6,101.3,81.9,103.1L81.9,103.1z M110.9,102.6
	c2.1,1.6,3.5,4.2,3.7,7.6h-4.9c-0.5-2.1-1.2-3.5-2.5-4.4c-1.2-0.9-3-1.4-5.3-1.4c-2.1,0-3.7,0.2-4.9,0.9c-1.4,0.7-2.1,1.9-2.1,3.5
	c0,1.4,0.7,2.5,2.3,3.2c0.7,0.5,2.5,1.2,5.6,1.9c4.2,1.4,6.9,2.3,8.3,3c2.8,1.6,3.9,3.9,3.9,6.7c0,2.8-1.2,5.1-3.2,6.7
	c-2.3,1.6-5.3,2.3-9.3,2.3c-3.9,0-6.7-0.7-9-2.3c-2.5-1.9-3.9-4.9-4.2-8.8h4.9c0.5,2.5,1.2,4.2,2.5,5.3c1.4,0.9,3.2,1.4,5.8,1.4
	c2.3,0,4.2-0.5,5.8-1.2c1.6-0.7,2.1-1.9,2.1-3.2c0-1.9-0.9-3-3-4.2c-0.7-0.5-2.8-1.2-6.3-2.1c-3.9-1.2-6.3-2.1-7.2-2.5
	c-2.3-1.4-3.7-3.5-3.7-6.2c0-2.8,1.2-4.9,3.5-6.5c2.1-1.4,4.9-2.3,8.3-2.3C106,100.3,108.8,101,110.9,102.6L110.9,102.6z M122,100.8
	l9,25.9h0.2l8.8-25.9h5.1l-11.3,31.5H128l-11.3-31.5H122z"/>
<path class="st2" d="M163.6,60.5h-25c-3.2,0-6.5-1.4-8.8-3.7s-3.7-5.8-3.7-9V21.6H51.4c-3.5,0-6.7,1.4-9,3.7
	c-2.3,2.5-3.7,5.8-3.7,9.3v129.6c0,7.2,5.6,12.7,12.5,12.7h100c3.2,0,6.5-1.4,8.8-3.7s3.7-5.6,3.7-9L163.6,60.5L163.6,60.5z
	 M81.7,130c-2.3,1.9-5.3,3-8.8,3c-5.1,0-9-1.6-11.6-4.9c-2.3-2.8-3.5-6.5-3.5-11.3c0-4.6,1.2-8.3,3.5-11.3c2.5-3.2,6.5-4.9,11.3-4.9
	c3.7,0,6.7,0.9,9,2.8s3.7,4.4,4.2,7.6h-4.6c-0.5-2.1-1.6-3.7-3-4.6c-1.2-1.4-3-1.9-5.3-1.9c-3.5,0-6,1.2-7.6,3.5
	c-1.6,2.1-2.3,5.1-2.3,8.6c0,3.7,0.7,6.7,2.3,8.8c1.6,2.3,4.2,3.2,7.9,3.2c2.3,0,4.2-0.5,5.8-1.6c1.6-1.2,2.8-3,3.2-5.6h4.6
	C85.9,125.1,84.2,127.9,81.7,130L81.7,130z M112,130.4c-2.3,1.6-5.3,2.3-9.3,2.3s-6.7-0.7-9-2.3c-2.5-1.9-3.9-4.9-4.2-8.8h4.9
	c0.5,2.5,1.2,4.2,2.5,5.3c1.4,0.9,3.2,1.4,5.8,1.4c2.3,0,4.2-0.5,5.8-1.2c1.6-0.7,2.1-1.9,2.1-3.2c0-1.9-0.9-3-3-4.2
	c-0.7-0.5-2.8-1.2-6.3-2.1c-3.9-1.2-6.3-2.1-7.2-2.5c-2.3-1.4-3.7-3.5-3.7-6.2c0-2.8,1.2-4.9,3.5-6.5c2.1-1.4,4.9-2.3,8.3-2.3
	c3.7,0,6.5,0.7,8.6,2.3c2.1,1.6,3.5,4.2,3.7,7.6h-4.9c-0.5-2.1-1.2-3.5-2.5-4.4c-1.2-0.9-3-1.4-5.3-1.4c-2.1,0-3.7,0.2-4.9,0.9
	c-1.4,0.7-2.1,1.9-2.1,3.5c0,1.4,0.7,2.5,2.3,3.2c0.7,0.5,2.5,1.2,5.6,1.9c4.2,1.4,6.9,2.3,8.3,3c2.8,1.6,3.9,3.9,3.9,6.7
	C115.3,126.7,114.3,128.8,112,130.4L112,130.4z M133.8,132.3H128l-11.3-31.5h5.1l9,25.9h0.2l8.8-25.9h5.1L133.8,132.3L133.8,132.3z"
	/>
<rect x="55.3" y="98.5" class="st2" width="91.8" height="35.6"/>
<rect x="55.3" y="98.5" class="st3" width="90.8" height="35.6"/>
<text transform="matrix(1 0 0 1 55.3195 129.3892)" class="st1 st4 st5 st6">SVG</text>
</svg>
