<?xml version="1.0" encoding="utf-8"?>
<!-- Generator: Adobe Illustrator 23.0.0, SVG Export Plug-In . SVG Version: 6.00 Build 0)  -->
<svg version="1.1" id="图层_1" xmlns="http://www.w3.org/2000/svg" xmlns:xlink="http://www.w3.org/1999/xlink" x="0px" y="0px"
	 viewBox="0 0 200 200" style="enable-background:new 0 0 200 200;" xml:space="preserve">
<style type="text/css">
	.st0{fill:#F7BE45;}
	.st1{fill:#FFFFFF;}
	.st2{fill:#FFDA84;}
</style>
<path class="st0" d="M163.7,60.5h-25c-3.2,0-6.5-1.4-8.8-3.7c-2.3-2.3-3.7-5.8-3.7-9V21.6L163.7,60.5z"/>
<path class="st1" d="M89.8,114c0.7,0.7,1.2,1.9,1.2,3c0,1.2-0.5,2.1-1.2,3c-0.9,0.7-1.9,1.2-3,1.2s-2.1-0.5-2.8-1.2
	c-0.9-0.9-1.2-1.9-1.2-3c0-1.2,0.5-2.3,1.2-3s1.6-1.2,2.8-1.2S89.1,113,89.8,114z M104.9,114c0.7,0.7,1.2,1.9,1.2,3
	c0,1.2-0.5,2.1-1.2,3c-0.9,0.7-1.9,1.2-3,1.2s-2.1-0.5-2.8-1.2c-0.9-0.9-1.2-1.9-1.2-3c0-1.2,0.5-2.3,1.2-3s1.6-1.2,2.8-1.2
	S104,113,104.9,114z M119.7,114c0.7,0.7,1.2,1.9,1.2,3c0,1.2-0.5,2.1-1.2,3c-0.9,0.7-1.9,1.2-3,1.2c-1.2,0-2.1-0.5-2.8-1.2
	c-0.9-0.9-1.2-1.9-1.2-3c0-1.2,0.5-2.3,1.2-3s1.6-1.2,2.8-1.2C118.1,112.8,119,113,119.7,114L119.7,114z"/>
<path class="st1" d="M79,137.1l-27.1-19.2l0.2-5.8L79.2,95l3.7,6l-22.7,14.4l22.9,16L79,137.1z M122.5,137.1l-3.9-5.8l22.9-16
	L118.5,101l3.7-6l27.3,17.1v5.8L122.5,137.1z"/>
<path class="st2" d="M138.7,60.5c-3.2,0-6.5-1.4-8.8-3.7c-2.3-2.3-3.7-5.8-3.7-9V21.6H51.4c-3.5,0-6.7,1.2-9,3.7
	c-2.3,2.5-3.7,5.8-3.7,9.3v129.6c0,7.2,5.6,12.7,12.5,12.7h100c3.2,0,6.5-1.4,8.8-3.7s3.7-5.6,3.7-9V60.5H138.7z M79,137.1
	l-27.1-19.2l0.2-5.8L79.2,95l3.7,5.8l-22.7,14.4l22.9,16.2L79,137.1L79,137.1z M89.8,119.8c-0.9,0.7-1.9,1.2-3,1.2s-2.1-0.5-2.8-1.2
	c-0.9-0.9-1.2-1.9-1.2-3s0.5-2.3,1.2-3c0.7-0.7,1.6-1.2,2.8-1.2s2.1,0.5,3,1.2c0.7,0.7,1.2,1.9,1.2,3
	C91.2,117.9,90.8,119.1,89.8,119.8z M104.9,119.8c-0.9,0.7-1.9,1.2-3,1.2s-2.1-0.5-2.8-1.2c-0.9-0.9-1.2-1.9-1.2-3s0.5-2.3,1.2-3
	c0.7-0.7,1.6-1.2,2.8-1.2s2.1,0.5,3,1.2c0.7,0.7,1.2,1.9,1.2,3S105.6,119.1,104.9,119.8z M113.9,119.8c-0.9-0.9-1.2-1.9-1.2-3
	s0.5-2.3,1.2-3c0.7-0.7,1.6-1.2,2.8-1.2c1.2,0,2.1,0.5,3,1.2c0.7,0.7,1.2,1.9,1.2,3s-0.5,2.1-1.2,3c-0.9,0.7-1.9,1.2-3,1.2
	C115.5,120.9,114.6,120.7,113.9,119.8L113.9,119.8z M122.5,137.1l-3.9-5.6l22.9-16.2L118.8,101l3.7-5.8l27.1,17.1l0.2,5.8
	L122.5,137.1L122.5,137.1z"/>
</svg>
