<?xml version="1.0" encoding="utf-8"?>
<!-- Generator: Adobe Illustrator 23.0.0, SVG Export Plug-In . SVG Version: 6.00 Build 0)  -->
<svg version="1.1" id="图层_1" xmlns="http://www.w3.org/2000/svg" xmlns:xlink="http://www.w3.org/1999/xlink" x="0px" y="0px"
	 viewBox="0 0 200 200" style="enable-background:new 0 0 200 200;" xml:space="preserve">
<style type="text/css">
	.st0{fill:#FA6A68;}
	.st1{fill:#89D543;}
	.st2{fill:#60CEF8;}
	.st3{fill:#FFFFFF;}
	.st4{fill:#FDB84B;}
</style>
<path class="st0" d="M73.7,93.9h8.1v9.9h-8.1V93.9z M118.8,93.9h7.2v9.9h-7.2V93.9z"/>
<path class="st0" d="M81.8,109.7H65.6v-22h16.2V75.4h-44v45.7h44V109.7z M118.8,75.4v12.3h15.3v22h-15.3v11.4h44V75.4H118.8z"/>
<path class="st1" d="M118.8,121.2v21.1h-37v-21.1h-44v27.4c0,5.3,5.8,9.7,12.7,9.7h99.5c6.9,0,12.7-4.4,12.7-9.7v-27.4H118.8
	L118.8,121.2z"/>
<path class="st2" d="M50.5,40.2c-6.9,0-12.7,4.4-12.7,9.7v25.5h44V40.2H50.5z M150.1,40.2h-31.3v35.2h44V49.9
	C162.8,44.6,157.2,40.2,150.1,40.2z"/>
<path class="st3" d="M73.7,103.6h52.5v-9.9H73.7V103.6z M134.1,87.7v21.8H65.6V87.7C65.6,87.7,134.1,87.7,134.1,87.7z"/>
<path class="st4" d="M81.8,93.9h37v9.9h-37L81.8,93.9z M81.8,109.7h37v32.5h-37L81.8,109.7z M81.8,40.2h37v47.5h-37L81.8,40.2z"/>
</svg>
